<svg width="66" height="66" viewBox="0 0 66 66" fill="none" xmlns="http://www.w3.org/2000/svg">
<circle cx="32.7081" cy="32.7081" r="23.5" transform="rotate(119.509 32.7081 32.7081)" stroke="url(#paint0_linear_1935_8)"/>
<g clip-path="url(#clip0_1935_8)">
<path d="M35.1425 30.2427C35.2859 30.2427 35.4242 30.2657 35.5574 30.3041L38.042 27.2587C38.2008 27.064 38.4953 27.0281 38.6874 27.1921C38.8744 27.3483 38.9 27.6275 38.7438 27.817L36.2874 30.8292C36.4539 31.0597 36.5538 31.3441 36.5538 31.6514C36.5538 32.2226 36.2106 32.717 35.7214 32.9372H45.3598C45.7132 32.9372 46.0001 32.6504 46.0001 32.2969V24.1901C46.0001 23.8367 45.7132 23.5498 45.3598 23.5498H33.1164C32.763 23.5498 32.4761 23.8367 32.4761 24.1901V29.5127L33.055 30.2452H35.1425V30.2427Z" fill="url(#paint1_linear_1935_8)"/>
<path d="M27.156 26.7438C28.6046 26.7438 29.7789 25.5696 29.7789 24.121C29.7789 22.6725 28.6046 21.4982 27.156 21.4982C25.7075 21.4982 24.5332 22.6725 24.5332 24.121C24.5332 25.5696 25.7075 26.7438 27.156 26.7438Z" fill="url(#paint2_linear_1935_8)"/>
<path d="M29.8455 43.8615C29.8455 44.215 29.5586 44.5018 29.2052 44.5018H28.1294C27.7759 44.5018 27.489 44.215 27.489 43.8615V38.4928C27.489 38.3033 27.3354 38.1496 27.1458 38.1496C26.9563 38.1496 26.8026 38.3033 26.8026 38.4928V43.8358C26.8026 44.2021 26.5029 44.5018 26.1366 44.5018H25.0839C24.7304 44.5018 24.4436 44.215 24.4436 43.8615L24.4385 30.901C24.4385 30.7268 24.2976 30.5834 24.1208 30.5834C23.9467 30.5834 23.8032 30.7242 23.8032 30.901V35.8854C23.8032 36.2388 23.5164 36.5257 23.1629 36.5257H22.6404C22.2869 36.5257 22 36.2388 22 35.8854V29.0516C22 28.2397 22.6583 27.584 23.4677 27.584H29.2999C29.9249 27.584 30.5166 27.8709 30.9059 28.3601L32.4734 30.3375L32.8038 30.755C32.8038 30.755 34.2894 30.755 35.1449 30.7575C35.4984 30.7575 35.7853 31.0444 35.7853 31.3979V31.9076C35.7853 32.261 35.4984 32.5479 35.1449 32.5479H32.3736C32.0995 32.5479 31.8408 32.4224 31.6717 32.2072L30.5038 30.7063C30.4449 30.6294 30.3501 30.5833 30.2528 30.5833H30.1733C29.9992 30.5833 29.8558 30.7242 29.8558 30.9009L29.8455 43.8615Z" fill="url(#paint3_linear_1935_8)"/>
</g>
<circle cx="14" cy="39" r="1" fill="#6ABC9C"/>
<circle cx="49" cy="12" r="1" fill="#6ABC9C"/>
<circle cx="6.50003" cy="40.5" r="0.5" fill="#6ABC9C"/>
<circle cx="11.5" cy="45.5" r="0.5" fill="#6ABC9C"/>
<circle cx="53.5" cy="16.5" r="0.5" fill="#6ABC9C"/>
<circle cx="50.5" cy="23.5" r="0.5" fill="#6ABC9C"/>
<defs>
<linearGradient id="paint0_linear_1935_8" x1="32.7081" y1="8.70811" x2="32.7081" y2="56.7081" gradientUnits="userSpaceOnUse">
<stop stop-color="#4DB88D"/>
<stop offset="1" stop-color="#2C2E59"/>
</linearGradient>
<linearGradient id="paint1_linear_1935_8" x1="39.2381" y1="23.5498" x2="39.2381" y2="32.9372" gradientUnits="userSpaceOnUse">
<stop stop-color="#4DB68D"/>
<stop offset="1" stop-color="#8CC3AE"/>
</linearGradient>
<linearGradient id="paint2_linear_1935_8" x1="27.156" y1="21.4982" x2="27.156" y2="26.7438" gradientUnits="userSpaceOnUse">
<stop stop-color="#4DB68D"/>
<stop offset="1" stop-color="#8CC3AE"/>
</linearGradient>
<linearGradient id="paint3_linear_1935_8" x1="28.8927" y1="27.584" x2="28.8927" y2="44.5018" gradientUnits="userSpaceOnUse">
<stop stop-color="#4DB68D"/>
<stop offset="1" stop-color="#8CC3AE"/>
</linearGradient>
<clipPath id="clip0_1935_8">
<rect width="24" height="24" fill="white" transform="translate(22 21)"/>
</clipPath>
</defs>
</svg>
