<svg width="108" height="108" viewBox="0 0 108 108" fill="none" xmlns="http://www.w3.org/2000/svg">
<rect x="20.8332" y="1.35063" width="88" height="88" rx="19" transform="rotate(12.7909 20.8332 1.35063)" fill="url(#paint0_linear_101_400)" fill-opacity="0.9" stroke="url(#paint1_linear_101_400)" stroke-width="2"/>
<g clip-path="url(#clip0_101_400)">
<mask id="path-2-inside-1_101_400" fill="white">
<path d="M71.1098 39.5815L47.486 28.7634C47.486 28.7634 44.0466 25.7055 40.904 29.4471C39.607 30.9912 39.3253 32.7172 39.3253 32.7172L33.4105 69.4277C32.9383 72.8264 37.0756 73.9251 37.0756 73.9251L68.6491 81.8292L68.5252 80.2742C69.1858 79.0869 70.6597 77.0988 73.2297 76.8553C73.2871 76.8497 73.329 76.8114 73.3787 76.7858L74.3376 77.1003L71.1098 39.5815ZM48.9859 45.3701L50.0967 37.0276L67.7904 44.7417L68.1263 52.3049L48.9859 45.3701ZM69.5243 77.6009C69.2003 77.8919 68.9064 78.1936 68.6582 78.4993L48.0859 73.1264L68.1083 79.2605C68.0267 79.3867 67.9432 79.5124 67.8743 79.6308L41.3702 72.9008L67.4525 80.4348L67.4266 80.4889L37.9487 72.8857C37.9332 72.8837 36.5447 72.5879 35.5828 71.7799C34.6323 70.9816 34.4501 69.996 35.0231 68.7657C36.4948 65.604 41.6664 67.4552 41.7441 67.4837L71.4811 76.3673C71.0834 76.523 70.7296 76.7241 70.3944 76.9396L51.0745 71.8277L69.5243 77.6009Z"/>
</mask>
<path d="M71.1098 39.5815L47.486 28.7634C47.486 28.7634 44.0466 25.7055 40.904 29.4471C39.607 30.9912 39.3253 32.7172 39.3253 32.7172L33.4105 69.4277C32.9383 72.8264 37.0756 73.9251 37.0756 73.9251L68.6491 81.8292L68.5252 80.2742C69.1858 79.0869 70.6597 77.0988 73.2297 76.8553C73.2871 76.8497 73.329 76.8114 73.3787 76.7858L74.3376 77.1003L71.1098 39.5815ZM48.9859 45.3701L50.0967 37.0276L67.7904 44.7417L68.1263 52.3049L48.9859 45.3701ZM69.5243 77.6009C69.2003 77.8919 68.9064 78.1936 68.6582 78.4993L48.0859 73.1264L68.1083 79.2605C68.0267 79.3867 67.9432 79.5124 67.8743 79.6308L41.3702 72.9008L67.4525 80.4348L67.4266 80.4889L37.9487 72.8857C37.9332 72.8837 36.5447 72.5879 35.5828 71.7799C34.6323 70.9816 34.4501 69.996 35.0231 68.7657C36.4948 65.604 41.6664 67.4552 41.7441 67.4837L71.4811 76.3673C71.0834 76.523 70.7296 76.7241 70.3944 76.9396L51.0745 71.8277L69.5243 77.6009Z" fill="#9DA2C8"/>
<path d="M71.1098 39.5815L72.1061 39.4957L72.0561 38.915L71.5261 38.6723L71.1098 39.5815ZM47.486 28.7634L46.8216 29.5107L46.9335 29.6102L47.0696 29.6726L47.486 28.7634ZM39.3253 32.7172L38.3383 32.5561L38.338 32.5581L39.3253 32.7172ZM33.4105 69.4277L32.4232 69.2686L32.4215 69.2793L32.42 69.2901L33.4105 69.4277ZM37.0756 73.9251L36.8189 74.8916L36.8258 74.8935L36.8327 74.8952L37.0756 73.9251ZM68.6491 81.8292L68.4063 82.7992L69.7566 83.1373L69.646 81.7497L68.6491 81.8292ZM68.5252 80.2742L67.6513 79.7881L67.5043 80.0523L67.5283 80.3537L68.5252 80.2742ZM73.2297 76.8553L73.324 77.8509L73.3278 77.8505L73.2297 76.8553ZM73.3787 76.7858L73.6903 75.8356L73.2925 75.7051L72.9204 75.897L73.3787 76.7858ZM74.3376 77.1003L74.026 78.0505L75.4636 78.522L75.3339 77.0146L74.3376 77.1003ZM50.0967 37.0276L50.4963 36.111L49.2805 35.5809L49.1054 36.8956L50.0967 37.0276ZM67.7904 44.7417L68.7894 44.6974L68.7618 44.0743L68.1901 43.8251L67.7904 44.7417ZM68.1263 52.3049L67.7856 53.2451L69.1916 53.7545L69.1253 52.2605L68.1263 52.3049ZM68.6582 78.4993L68.4055 79.4669L69.0286 79.6296L69.4346 79.1296L68.6582 78.4993ZM48.0859 73.1264L48.3386 72.1588L47.793 74.0825L48.0859 73.1264ZM68.1083 79.2605L68.9483 79.8031L69.666 78.6918L68.4012 78.3043L68.1083 79.2605ZM67.8743 79.6308L67.6282 80.6001L68.3595 80.7858L68.7388 80.1336L67.8743 79.6308ZM41.3702 72.9008L41.6163 71.9315L41.0927 73.8615L41.3702 72.9008ZM67.4525 80.4348L68.3546 80.8662L68.8638 79.8015L67.73 79.474L67.4525 80.4348ZM67.4266 80.4889L67.1768 81.4572L67.9737 81.6628L68.3287 80.9204L67.4266 80.4889ZM37.9487 72.8857L38.1984 71.9173L38.1378 71.9017L38.0756 71.8937L37.9487 72.8857ZM35.0231 68.7657L35.9296 69.1879L35.9297 69.1877L35.0231 68.7657ZM41.7441 67.4837L41.3995 68.4224L41.4284 68.433L41.4578 68.4418L41.7441 67.4837ZM71.4811 76.3673L71.8457 77.2985L74.5489 76.2401L71.7673 75.4091L71.4811 76.3673ZM70.3944 76.9396L70.1386 77.9063L70.5644 78.019L70.935 77.7808L70.3944 76.9396ZM51.0745 71.8277L51.3303 70.8609L50.7758 72.782L51.0745 71.8277ZM71.5261 38.6723L47.9024 27.8542L47.0696 29.6726L70.6934 40.4907L71.5261 38.6723ZM47.486 28.7634C48.1504 28.016 48.15 28.0157 48.1496 28.0153C48.1495 28.0152 48.149 28.0148 48.1487 28.0145C48.1481 28.0139 48.1474 28.0133 48.1467 28.0127C48.1452 28.0114 48.1435 28.0099 48.1416 28.0082C48.1378 28.0049 48.1331 28.0008 48.1276 27.9961C48.1165 27.9866 48.102 27.9743 48.0842 27.9595C48.0486 27.9301 47.9995 27.8906 47.938 27.8437C47.8152 27.7502 47.641 27.6259 47.4229 27.4919C46.9907 27.2265 46.3631 26.9089 45.604 26.7291C44.8387 26.5478 43.9274 26.5042 42.9592 26.8075C41.9877 27.1119 41.0285 27.7439 40.1382 28.8039L41.6697 30.0902C42.3507 29.2794 43 28.8906 43.5572 28.716C44.1178 28.5404 44.6556 28.5597 45.143 28.6752C45.6365 28.7921 46.0652 29.0052 46.3761 29.1961C46.5295 29.2903 46.6486 29.3757 46.7262 29.4348C46.7648 29.4642 46.7927 29.4868 46.809 29.5003C46.8172 29.5071 46.8224 29.5115 46.8245 29.5133C46.8256 29.5142 46.8259 29.5145 46.8254 29.5141C46.8251 29.5139 46.8247 29.5135 46.8241 29.5129C46.8237 29.5126 46.8234 29.5123 46.823 29.5119C46.8228 29.5118 46.8224 29.5114 46.8223 29.5114C46.8219 29.511 46.8216 29.5107 47.486 28.7634ZM40.1382 28.8039C39.3968 29.6866 38.9515 30.613 38.6911 31.3122C38.5602 31.6637 38.474 31.9634 38.4196 32.1799C38.3924 32.2883 38.3731 32.3764 38.3601 32.4402C38.3535 32.4722 38.3486 32.4981 38.345 32.5176C38.3433 32.5273 38.3418 32.5354 38.3407 32.5418C38.3402 32.5451 38.3397 32.5479 38.3393 32.5502C38.3391 32.5514 38.3389 32.5525 38.3387 32.5535C38.3387 32.554 38.3386 32.5544 38.3385 32.5549C38.3385 32.5551 38.3384 32.5554 38.3384 32.5555C38.3384 32.5558 38.3383 32.5561 39.3253 32.7172C40.3122 32.8783 40.3122 32.8785 40.3121 32.8788C40.3121 32.8789 40.3121 32.8792 40.312 32.8793C40.312 32.8796 40.3119 32.8799 40.3119 32.8802C40.3118 32.8808 40.3117 32.8812 40.3116 32.8816C40.3115 32.8823 40.3115 32.8826 40.3115 32.8825C40.3115 32.8823 40.3118 32.8805 40.3124 32.8772C40.3136 32.8707 40.316 32.858 40.3197 32.8397C40.3272 32.8032 40.34 32.7444 40.3594 32.6668C40.3985 32.5114 40.4637 32.2832 40.5654 32.0101C40.7701 31.4603 41.1141 30.7517 41.6697 30.0902L40.1382 28.8039ZM38.338 32.5581L32.4232 69.2686L34.3978 69.5867L40.3125 32.8762L38.338 32.5581ZM32.42 69.2901C32.1131 71.4987 33.3431 72.9458 34.4831 73.7635C35.0523 74.1718 35.629 74.45 36.0569 74.6255C36.2728 74.7141 36.4559 74.7786 36.588 74.8218C36.6542 74.8434 36.708 74.8598 36.7471 74.8713C36.7667 74.8771 36.7827 74.8816 36.7947 74.885C36.8007 74.8867 36.8058 74.8881 36.8098 74.8892C36.8119 74.8897 36.8136 74.8902 36.8151 74.8906C36.8159 74.8908 36.8166 74.891 36.8172 74.8912C36.8175 74.8913 36.818 74.8914 36.8181 74.8914C36.8185 74.8915 36.8189 74.8916 37.0756 73.9251C37.3322 72.9586 37.3326 72.9587 37.3329 72.9588C37.333 72.9588 37.3334 72.9589 37.3336 72.959C37.3339 72.9591 37.3343 72.9592 37.3345 72.9592C37.335 72.9594 37.3353 72.9594 37.3353 72.9595C37.3354 72.9595 37.3345 72.9592 37.3327 72.9587C37.3292 72.9577 37.322 72.9557 37.3113 72.9526C37.2901 72.9463 37.2555 72.9358 37.2094 72.9208C37.1172 72.8906 36.9807 72.8427 36.8161 72.7752C36.483 72.6385 36.0549 72.4296 35.6488 72.1383C34.8382 71.557 34.2356 70.7554 34.401 69.5653L32.42 69.2901ZM36.8327 74.8952L68.4063 82.7992L68.892 80.8591L37.3184 72.9551L36.8327 74.8952ZM69.646 81.7497L69.522 80.1948L67.5283 80.3537L67.6523 81.9086L69.646 81.7497ZM69.399 80.7604C70.0155 79.6525 71.2635 78.0461 73.324 77.8509L73.1353 75.8598C70.056 76.1516 68.3561 78.5213 67.6513 79.7881L69.399 80.7604ZM73.3278 77.8505C73.5566 77.8279 73.723 77.7416 73.7986 77.6989C73.8181 77.6879 73.8345 77.678 73.8454 77.6714C73.8509 77.6681 73.8558 77.665 73.8592 77.6629C73.8635 77.6602 73.8647 77.6595 73.867 77.6581C73.8762 77.6524 73.8607 77.6624 73.837 77.6746L72.9204 75.897C72.8718 75.922 72.8324 75.9464 72.818 75.9552C72.7944 75.9698 72.8059 75.9626 72.8155 75.9572C72.8434 75.9414 72.9601 75.877 73.1316 75.8601L73.3278 77.8505ZM73.067 77.736L74.026 78.0505L74.6492 76.1501L73.6903 75.8356L73.067 77.736ZM75.3339 77.0146L72.1061 39.4957L70.1135 39.6672L73.3413 77.186L75.3339 77.0146ZM49.9771 45.5021L51.0879 37.1596L49.1054 36.8956L47.9946 45.2381L49.9771 45.5021ZM49.697 37.9443L67.3908 45.6584L68.1901 43.8251L50.4963 36.111L49.697 37.9443ZM66.7914 44.7861L67.1273 52.3493L69.1253 52.2605L68.7894 44.6974L66.7914 44.7861ZM68.4669 51.3647L49.3265 44.4299L48.6452 46.3103L67.7856 53.2451L68.4669 51.3647ZM68.8561 76.8569C68.5013 77.1755 68.1694 77.5149 67.8819 77.869L69.4346 79.1296C69.6435 78.8723 69.8992 78.6082 70.1925 78.3448L68.8561 76.8569ZM68.9109 77.5318L48.3386 72.1588L47.8332 74.0939L68.4055 79.4669L68.9109 77.5318ZM47.793 74.0825L67.8153 80.2166L68.4012 78.3043L48.3789 72.1702L47.793 74.0825ZM67.2682 78.7179C67.1979 78.8268 67.0942 78.9832 67.0099 79.1281L68.7388 80.1336C68.7922 80.0416 68.8556 79.9465 68.9483 79.8031L67.2682 78.7179ZM68.1204 78.6616L41.6163 71.9315L41.1241 73.87L67.6282 80.6001L68.1204 78.6616ZM41.0927 73.8615L67.175 81.3955L67.73 79.474L41.6477 71.94L41.0927 73.8615ZM66.5504 80.0033L66.5245 80.0575L68.3287 80.9204L68.3546 80.8662L66.5504 80.0033ZM67.6764 79.5206L38.1984 71.9173L37.6989 73.854L67.1768 81.4572L67.6764 79.5206ZM38.0756 71.8937C38.1404 71.902 38.1822 71.9142 38.114 71.898C38.0834 71.8907 38.0355 71.8787 37.9735 71.8616C37.8492 71.8274 37.6727 71.7737 37.4704 71.6982C37.053 71.5424 36.5838 71.3148 36.2259 71.0142L34.9396 72.5457C35.5437 73.053 36.2497 73.3773 36.7709 73.5719C37.0379 73.6715 37.2716 73.7427 37.442 73.7897C37.5274 73.8133 37.598 73.831 37.6501 73.8434C37.6645 73.8469 37.7531 73.8688 37.8217 73.8776L38.0756 71.8937ZM36.2259 71.0142C35.8863 70.729 35.7563 70.4759 35.7149 70.2524C35.6712 70.0171 35.7011 69.6785 35.9296 69.1879L34.1166 68.3435C33.7721 69.0832 33.6066 69.8526 33.7484 70.6172C33.8924 71.3937 34.3287 72.0325 34.9396 72.5457L36.2259 71.0142ZM35.9297 69.1877C36.3933 68.1917 37.4692 67.8608 38.8585 67.9272C39.5166 67.9587 40.1489 68.0797 40.6283 68.1982C41.106 68.3162 41.4086 68.4258 41.3995 68.4224L42.0887 66.5449C42.0156 66.5181 40.5913 66.0079 38.9541 65.9295C37.3704 65.8537 35.1246 66.178 34.1165 68.3437L35.9297 69.1877ZM41.4578 68.4418L71.1949 77.3255L71.7673 75.4091L42.0303 66.5255L41.4578 68.4418ZM71.1165 75.4361C70.6344 75.6249 70.219 75.8636 69.8537 76.0984L70.935 77.7808C71.2402 77.5847 71.5325 77.4211 71.8457 77.2985L71.1165 75.4361ZM70.6501 75.9729L51.3303 70.8609L50.8187 72.7944L70.1386 77.9063L70.6501 75.9729ZM50.7758 72.782L69.2257 78.5552L69.8229 76.6465L51.3731 70.8733L50.7758 72.782Z" fill="#6668AA" mask="url(#path-2-inside-1_101_400)"/>
</g>
<defs>
<linearGradient id="paint0_linear_101_400" x1="64.9467" y1="-28.7139" x2="64.9467" y2="114.777" gradientUnits="userSpaceOnUse">
<stop stop-color="#4C5E9D"/>
<stop offset="1" stop-color="#171836"/>
</linearGradient>
<linearGradient id="paint1_linear_101_400" x1="65.0794" y1="0.154053" x2="65.0794" y2="90.1541" gradientUnits="userSpaceOnUse">
<stop stop-color="#3F458D" stop-opacity="0.63"/>
<stop offset="1" stop-color="#3F458D" stop-opacity="0.14"/>
</linearGradient>
<clipPath id="clip0_101_400">
<rect width="60" height="60" fill="white" transform="translate(50.59 15) rotate(40.0283)"/>
</clipPath>
</defs>
</svg>
