<svg width="104" height="104" viewBox="0 0 104 104" fill="none" xmlns="http://www.w3.org/2000/svg">
<rect x="1.77348" y="15.2672" width="88" height="88" rx="19" transform="rotate(-8.82041 1.77348 15.2672)" fill="url(#paint0_linear_101_402)" fill-opacity="0.9" stroke="url(#paint1_linear_101_402)" stroke-width="2"/>
<path d="M29.4058 34.753C28.6884 35.7312 28.8998 37.1059 29.8781 37.8233L31.1828 38.7802C32.1611 39.4976 33.5357 39.2862 34.2531 38.3079C34.9706 37.3296 34.7591 35.955 33.7809 35.2375L32.4762 34.2807C31.4979 33.5633 30.1233 33.7747 29.4058 34.753ZM48.5581 23.2095C47.3392 23.397 46.503 24.5372 46.6905 25.7561L47.077 28.2689C47.2645 29.4879 48.4047 30.324 49.6236 30.1365C50.8426 29.949 51.6787 28.8089 51.4912 27.59L51.1047 25.0771C50.9172 23.8582 49.7771 23.022 48.5581 23.2095ZM29.211 57.9701C30.4299 57.7826 31.2661 56.6425 31.0786 55.4235C30.8911 54.2046 29.751 53.3684 28.532 53.5559L25.8936 53.9617C24.6746 54.1492 23.8385 55.2894 24.0259 56.5083C24.2134 57.7273 25.3536 58.5634 26.5725 58.3759L29.211 57.9701ZM63.001 66.4643C62.8109 65.228 63.3109 64.0296 64.1592 63.1862C65.6908 61.6632 66.8792 59.8764 67.7248 57.821C68.7812 55.2536 69.0925 52.5528 68.6549 49.7081C67.9923 45.3999 65.9103 41.9689 62.393 39.3894C58.8757 36.8099 54.9776 35.8552 50.6694 36.5178C46.3613 37.1805 42.9303 39.2625 40.3508 42.7798C37.7713 46.2971 36.8165 50.1952 37.4792 54.5033C37.9172 57.3509 39.0065 59.8382 40.7456 61.9763C42.1349 63.6844 43.8103 65.0295 45.7753 66.0145C46.8601 66.5582 47.7188 67.5602 47.9118 68.8149L48.8764 75.0862C49.2542 77.5426 51.5518 79.2276 54.0082 78.8497L60.2065 77.8964C62.6629 77.5185 64.3479 75.2209 63.9701 72.7645L63.001 66.4643ZM74.9106 48.6815C75.0981 49.9005 76.2382 50.7367 77.4572 50.5492L80.0956 50.1433C81.3146 49.9558 82.1507 48.8157 81.9632 47.5968C81.7757 46.3778 80.6356 45.5416 79.4167 45.7291L76.7782 46.135C75.5593 46.3225 74.7231 47.4626 74.9106 48.6815ZM66.2774 30.2265C65.5606 31.2039 65.784 32.5791 66.7734 33.2792C67.7305 33.9564 69.0524 33.7504 69.758 32.8141L70.7317 31.522C71.4626 30.552 71.2594 29.1717 70.28 28.4534C69.3096 27.7417 67.9459 27.9515 67.2342 28.9219L66.2774 30.2265Z" fill="#9DA2C8" stroke="#6668AA"/>
<defs>
<linearGradient id="paint0_linear_101_402" x1="45.4992" y1="-14.4356" x2="45.4993" y2="129.055" gradientUnits="userSpaceOnUse">
<stop stop-color="#4C5E9D"/>
<stop offset="1" stop-color="#171836"/>
</linearGradient>
<linearGradient id="paint1_linear_101_402" x1="45.632" y1="14.4324" x2="45.632" y2="104.432" gradientUnits="userSpaceOnUse">
<stop stop-color="#3F458D" stop-opacity="0.63"/>
<stop offset="1" stop-color="#3F458D" stop-opacity="0.14"/>
</linearGradient>
</defs>
</svg>
